PathFileType	4	(X/Y/Z)	Patient4_TMGait_0pt2_01_left_24.trc.trc
DataRate	CameraRate	NumFrames	NumMarkers	Units	OrigDataRate	OrigDataStartFrame	OrigNumFrames
44.871794871795	44.871794871795	4	33	mm	44.871794871795	36	       141
Frame#	Time	Sacral			L.Shoulder			Chest			R.Shoulder			Neck			R.ASIS			L.ASIS			R.Thigh.Superior			R.Thigh.Lateral			R.Thigh.Inferior			R.Patella			L.Thigh.Superior			L.Thigh.Lateral			L.Thigh.Inferior			L.Patella			L.Shank.Superior			L.Shank.Lateral			L.Shank.Inferior			R.Shank.Superior			R.Shank.Lateral			R.Shank.Inferior			R.Heel			R.Midfoot.Superior			R.Midfoot.Lateral			R.Toe			L.Heel			L.Midfoot.Lateral			L.Midfoot.Superior			L.Toe			L.Elbow			L.Wrist			R.Elbow			R.Wrist			
		X1	Y1	Z1	X2	Y2	Z2	X3	Y3	Z3	X4	Y4	Z4	X5	Y5	Z5	X6	Y6	Z6	X7	Y7	Z7	X8	Y8	Z8	X9	Y9	Z9	X10	Y10	Z10	X11	Y11	Z11	X12	Y12	Z12	X13	Y13	Z13	X14	Y14	Z14	X15	Y15	Z15	X16	Y16	Z16	X17	Y17	Z17	X18	Y18	Z18	X19	Y19	Z19	X20	Y20	Z20	X21	Y21	Z21	X22	Y22	Z22	X23	Y23	Z23	X24	Y24	Z24	X25	Y25	Z25	X26	Y26	Z26	X27	Y27	Z27	X28	Y28	Z28	X29	Y29	Z29	X30	Y30	Z30	X31	Y31	Z31	X32	Y32	Z32	X33	Y33	Z33	

36	55.730000000000	851.565542707453	1015.647944295558	524.326634536640	985.571142813080	1428.018263407193	288.001203617383	1129.242505094832	1357.615641835347	414.252737518586	1105.479127148701	1440.391921689233	600.281863534704	1010.115402186437	1494.647665675984	441.712113560792	1096.689345348884	936.574283856701	585.509719995930	1022.325946655209	960.416559126012	321.405700069732	1095.966636184184	726.046803016876	556.248349804757	1012.783161262717	626.889277690134	635.132613124993	1062.527727300400	564.476367411582	544.441032545863	1049.418168291687	474.154498966737	555.868978832843	1090.338532740729	761.955197510472	345.967910038606	1011.357667229624	637.401555530739	286.725300608084	1109.726601351327	568.958644613679	338.946454269846	1117.105863647597	500.146707336438	341.864445240201	1095.624176482543	428.009251385514	330.482802076298	1011.980762630653	310.510265148671	276.162976210589	1076.775902961396	198.204562628371	334.700064419117	1003.031067907541	394.407191713442	571.821632782262	919.374123833842	308.065723271664	645.914552312259	931.607371442194	205.742029389082	582.485094434158	766.297861227676	59.984498630837	572.240567656600	942.202807811788	98.986076595032	596.830811451626	853.362642106414	45.988755095159	640.920982677907	1059.495507888253	38.308351584688	618.664946344403	959.628118038784	38.603976482986	369.089593729327	1033.932742995301	35.838444348466	288.847173378856	1116.663996457786	97.850233173005	315.579940074093	1244.847359477168	48.004090333834	287.929119073706	840.582746034398	1098.069988289362	232.313304087294	803.417266924808	842.776871154007	277.541079631248	1319.225628397574	1166.161318369498	669.035805167249	1533.579633058304	1189.984154886418	526.893698002023	
37	55.752285714286	851.217997832269	1016.289685291107	516.426464714935	986.668832906917	1429.095147412785	282.197964878006	1129.009655625432	1359.124982817727	410.137054218887	1102.732319991824	1441.720275733249	595.929922834834	1009.212052142457	1495.768550738440	436.307063792496	1095.825918082778	937.770954649849	580.505179258094	1024.360335381646	961.241654409765	315.561213652791	1095.034574357622	726.955932005568	552.438499981144	1011.071281603641	628.397241697087	631.452802250208	1061.540252985153	565.227511463759	541.689073124833	1048.248243911211	474.685832318922	553.648345454122	1091.045315603978	761.854618625399	341.124419070870	1011.548875192704	637.359881302368	282.317549947883	1109.150760347367	568.552299769267	335.411002279263	1116.146130538300	499.615457578769	339.008003523520	1094.235550984116	427.476352203356	328.089530323171	1010.145346395681	310.172482694143	274.215507173053	1073.526856941436	197.831305112255	334.007368951518	1001.108618268250	395.339262760131	569.807114150811	916.692892127309	310.128588257661	644.269271972574	928.728623558562	207.147302205248	581.760638503919	762.438039757580	62.707910693874	572.182219393814	938.854861619011	99.689269177860	596.874279565250	849.396533716330	47.614086119819	640.836918680687	1055.333898806297	38.008892474346	618.646197507539	955.323177949483	38.605249199161	369.047634397469	1029.622818078687	35.872943163020	288.812675469283	1112.407630063614	97.734586117688	315.586281253445	1240.633299681320	47.669510484197	287.874407400141	844.434674936717	1098.242214253600	222.897789183487	809.098329941980	842.292691428280	265.485360073731	1312.439110438736	1163.524884874492	667.429685803502	1529.226410043945	1183.077541186878	528.056647706671	
38	55.774571428571	850.850296382359	1016.882144492423	508.406271859241	987.737475434386	1430.179537770760	276.442685666866	1128.642213999643	1360.717711759702	406.172614809517	1099.659012246551	1443.083460762721	591.687526066473	1008.134760469555	1496.912979881289	430.947773091059	1094.886854891978	939.034061229300	575.536569611281	1026.503349624803	962.076505011810	309.754068582840	1094.294006222318	727.952911775617	548.625572567035	1009.663256347781	629.896622868961	627.717118031710	1061.004250871447	566.014206049349	538.911502423856	1047.680347770598	475.119975029677	551.459380660275	1091.718842251945	761.632466371117	336.276502160064	1011.592620452877	637.261821625187	277.915422013215	1108.375309135947	568.061880943128	331.892605273800	1114.922240873296	499.031107890458	336.162261426071	1092.616318061792	426.927470962657	325.703164806780	1008.117895068825	309.784153262283	272.314496457567	1070.194328704117	197.479793503448	333.321039361390	999.585642421797	396.214828354193	567.749062454410	914.338598180515	312.263582502646	642.581617106399	926.102681202097	208.597956400604	581.049611109071	758.673500811888	65.615304129223	572.107145899441	935.647713144825	100.377487828503	596.923651067609	845.493903377355	49.318624410431	640.753162174638	1051.198374432818	37.758602634667	618.619311914602	950.977000868196	38.615295437148	369.021615846578	1025.275126446188	35.899117249420	288.797636563066	1108.110940239560	97.622841576969	315.590885679695	1236.373679512361	47.329280863475	287.829280543677	848.788778252066	1098.208728460731	213.416007615070	815.583019196916	841.605397116984	253.323410587695	1304.361108793820	1160.231887020149	666.171678408746	1523.635029782445	1174.292069571312	529.778954411238	
39	55.796857142857	850.456293047515	1017.396218999415	500.293205632346	988.755284588652	1431.255013975064	270.760447759564	1128.118528283732	1362.362500192602	402.366450327364	1096.255910690943	1444.427907609591	587.565986287897	1006.870795090111	1498.054676477965	425.650107408654	1093.854990238278	940.337469464442	570.604095735239	1028.726927314980	962.906602314192	303.999945329655	1093.800782230333	729.016159940956	544.812433356578	1008.642487174772	631.339345151656	623.920521840389	1061.021653064752	566.806625191710	536.102987368325	1047.831717752209	475.415811987747	549.311501701227	1092.399695749346	761.311472606171	331.469613221393	1011.580710194377	637.111639098738	273.538066788621	1107.492217364422	567.504878291496	328.424847279006	1113.536828557147	498.397066568555	333.353019430772	1090.853693048630	426.355852954369	323.347098290876	1005.968294925532	309.356056234769	270.454422606940	1066.813688489060	197.141549455530	332.646765788497	998.589736678048	397.009336137990	565.670659698859	912.396879651317	314.467227276821	640.852106816594	923.790960643945	210.087040804770	580.358109067622	755.040031207243	68.744520277027	572.019751630588	932.603326240684	101.029320274947	596.980815631351	841.672393996939	51.116603406251	640.675058508301	1047.076219584843	37.561250156129	618.591638301156	946.589024756838	38.633906001287	369.007730058743	1020.887836465288	35.918175986850	288.796631200261	1103.776925679691	97.511928860024	315.594358700059	1232.067652168906	46.981507282597	287.791303202014	853.773423915337	1097.913586261049	203.889523778570	823.068990348822	840.654344023700	241.074425171015	1294.907888523224	1156.279039170271	665.233455204804	1516.627153866986	1163.342623141469	532.090076485049	
